<mxfile host="app.diagrams.net" agent="Mozilla/5.0 (Windows NT 10.0; Win64; x64) AppleWebKit/537.36 (KHTML, like Gecko) Chrome/134.0.0.0 Safari/537.36 Edg/134.0.0.0" version="26.0.14" pages="2">
  <diagram name="Casos de uso1" id="HnE9_MCbc7pOgZbPwxwv">
    <mxGraphModel dx="1204" dy="675" grid="1" gridSize="10" guides="1" tooltips="1" connect="1" arrows="1" fold="1" page="1" pageScale="1" pageWidth="827" pageHeight="1169" math="0" shadow="0">
      <root>
        <mxCell id="0" />
        <mxCell id="1" parent="0" />
        <mxCell id="GhoDLd_KPCmhALnuABOB-15" value="" style="edgeStyle=orthogonalEdgeStyle;rounded=0;orthogonalLoop=1;jettySize=auto;html=1;" edge="1" parent="1" source="GhoDLd_KPCmhALnuABOB-1" target="GhoDLd_KPCmhALnuABOB-3">
          <mxGeometry relative="1" as="geometry" />
        </mxCell>
        <mxCell id="GhoDLd_KPCmhALnuABOB-1" value="Usuário" style="shape=umlActor;verticalLabelPosition=bottom;verticalAlign=top;html=1;" vertex="1" parent="1">
          <mxGeometry x="80" y="40" width="30" height="60" as="geometry" />
        </mxCell>
        <mxCell id="GhoDLd_KPCmhALnuABOB-25" value="" style="edgeStyle=orthogonalEdgeStyle;rounded=0;orthogonalLoop=1;jettySize=auto;html=1;" edge="1" parent="1" source="GhoDLd_KPCmhALnuABOB-3" target="GhoDLd_KPCmhALnuABOB-8">
          <mxGeometry relative="1" as="geometry" />
        </mxCell>
        <mxCell id="GhoDLd_KPCmhALnuABOB-54" value="inclusão" style="edgeLabel;html=1;align=center;verticalAlign=middle;resizable=0;points=[];" vertex="1" connectable="0" parent="GhoDLd_KPCmhALnuABOB-25">
          <mxGeometry x="-0.1409" y="1" relative="1" as="geometry">
            <mxPoint as="offset" />
          </mxGeometry>
        </mxCell>
        <mxCell id="GhoDLd_KPCmhALnuABOB-31" value="" style="edgeStyle=orthogonalEdgeStyle;rounded=0;orthogonalLoop=1;jettySize=auto;html=1;" edge="1" parent="1" source="GhoDLd_KPCmhALnuABOB-3" target="GhoDLd_KPCmhALnuABOB-17">
          <mxGeometry relative="1" as="geometry">
            <Array as="points">
              <mxPoint x="300" y="65" />
              <mxPoint x="300" y="65" />
            </Array>
          </mxGeometry>
        </mxCell>
        <mxCell id="GhoDLd_KPCmhALnuABOB-55" value="inclusão" style="edgeLabel;html=1;align=center;verticalAlign=middle;resizable=0;points=[];" vertex="1" connectable="0" parent="GhoDLd_KPCmhALnuABOB-31">
          <mxGeometry x="-0.1445" y="1" relative="1" as="geometry">
            <mxPoint as="offset" />
          </mxGeometry>
        </mxCell>
        <mxCell id="GhoDLd_KPCmhALnuABOB-3" value="Fazer login" style="ellipse;whiteSpace=wrap;html=1;fillColor=#d80073;fontColor=#ffffff;strokeColor=#A50040;" vertex="1" parent="1">
          <mxGeometry x="130" y="30" width="140" height="70" as="geometry" />
        </mxCell>
        <mxCell id="GhoDLd_KPCmhALnuABOB-24" value="" style="edgeStyle=orthogonalEdgeStyle;rounded=0;orthogonalLoop=1;jettySize=auto;html=1;" edge="1" parent="1" source="GhoDLd_KPCmhALnuABOB-8" target="GhoDLd_KPCmhALnuABOB-9">
          <mxGeometry relative="1" as="geometry" />
        </mxCell>
        <mxCell id="GhoDLd_KPCmhALnuABOB-53" value="inclusão" style="edgeLabel;html=1;align=center;verticalAlign=middle;resizable=0;points=[];" vertex="1" connectable="0" parent="GhoDLd_KPCmhALnuABOB-24">
          <mxGeometry x="-0.3" y="2" relative="1" as="geometry">
            <mxPoint as="offset" />
          </mxGeometry>
        </mxCell>
        <mxCell id="GhoDLd_KPCmhALnuABOB-8" value="Buscar por produtos" style="ellipse;whiteSpace=wrap;html=1;fillColor=#d80073;fontColor=#ffffff;strokeColor=#A50040;" vertex="1" parent="1">
          <mxGeometry x="130" y="140" width="140" height="70" as="geometry" />
        </mxCell>
        <mxCell id="GhoDLd_KPCmhALnuABOB-26" value="" style="edgeStyle=orthogonalEdgeStyle;rounded=0;orthogonalLoop=1;jettySize=auto;html=1;" edge="1" parent="1" source="GhoDLd_KPCmhALnuABOB-9" target="GhoDLd_KPCmhALnuABOB-16">
          <mxGeometry relative="1" as="geometry" />
        </mxCell>
        <mxCell id="GhoDLd_KPCmhALnuABOB-52" value="inclusão" style="edgeLabel;html=1;align=center;verticalAlign=middle;resizable=0;points=[];" vertex="1" connectable="0" parent="GhoDLd_KPCmhALnuABOB-26">
          <mxGeometry x="-0.25" y="-1" relative="1" as="geometry">
            <mxPoint as="offset" />
          </mxGeometry>
        </mxCell>
        <mxCell id="GhoDLd_KPCmhALnuABOB-9" value="Realizar uma compra" style="ellipse;whiteSpace=wrap;html=1;fillColor=#d80073;fontColor=#ffffff;strokeColor=#A50040;" vertex="1" parent="1">
          <mxGeometry x="130" y="240" width="140" height="70" as="geometry" />
        </mxCell>
        <mxCell id="GhoDLd_KPCmhALnuABOB-18" value="" style="edgeStyle=orthogonalEdgeStyle;rounded=0;orthogonalLoop=1;jettySize=auto;html=1;" edge="1" parent="1" target="GhoDLd_KPCmhALnuABOB-16">
          <mxGeometry relative="1" as="geometry">
            <mxPoint x="200" y="370" as="sourcePoint" />
          </mxGeometry>
        </mxCell>
        <mxCell id="GhoDLd_KPCmhALnuABOB-33" value="" style="edgeStyle=orthogonalEdgeStyle;rounded=0;orthogonalLoop=1;jettySize=auto;html=1;" edge="1" parent="1" source="GhoDLd_KPCmhALnuABOB-16" target="GhoDLd_KPCmhALnuABOB-32">
          <mxGeometry relative="1" as="geometry" />
        </mxCell>
        <mxCell id="GhoDLd_KPCmhALnuABOB-51" value="inclusão" style="edgeLabel;html=1;align=center;verticalAlign=middle;resizable=0;points=[];" vertex="1" connectable="0" parent="GhoDLd_KPCmhALnuABOB-33">
          <mxGeometry x="-0.2961" y="-1" relative="1" as="geometry">
            <mxPoint as="offset" />
          </mxGeometry>
        </mxCell>
        <mxCell id="GhoDLd_KPCmhALnuABOB-16" value="Conclusão da compra" style="ellipse;whiteSpace=wrap;html=1;fillColor=#d80073;fontColor=#ffffff;strokeColor=#A50040;" vertex="1" parent="1">
          <mxGeometry x="130" y="350" width="140" height="70" as="geometry" />
        </mxCell>
        <mxCell id="GhoDLd_KPCmhALnuABOB-29" value="" style="edgeStyle=orthogonalEdgeStyle;rounded=0;orthogonalLoop=1;jettySize=auto;html=1;" edge="1" parent="1" source="GhoDLd_KPCmhALnuABOB-17" target="GhoDLd_KPCmhALnuABOB-28">
          <mxGeometry relative="1" as="geometry" />
        </mxCell>
        <mxCell id="GhoDLd_KPCmhALnuABOB-44" value="Extenção" style="edgeLabel;html=1;align=center;verticalAlign=middle;resizable=0;points=[];" vertex="1" connectable="0" parent="GhoDLd_KPCmhALnuABOB-29">
          <mxGeometry x="-0.2788" y="-1" relative="1" as="geometry">
            <mxPoint as="offset" />
          </mxGeometry>
        </mxCell>
        <mxCell id="GhoDLd_KPCmhALnuABOB-17" value="Autenticar no sistema" style="ellipse;whiteSpace=wrap;html=1;fillColor=#d80073;fontColor=#ffffff;strokeColor=#A50040;" vertex="1" parent="1">
          <mxGeometry x="330" y="20" width="140" height="70" as="geometry" />
        </mxCell>
        <mxCell id="GhoDLd_KPCmhALnuABOB-28" value="Atualizar seus dados" style="ellipse;whiteSpace=wrap;html=1;fillColor=#d80073;fontColor=#ffffff;strokeColor=#A50040;" vertex="1" parent="1">
          <mxGeometry x="330" y="160" width="140" height="70" as="geometry" />
        </mxCell>
        <mxCell id="GhoDLd_KPCmhALnuABOB-38" value="" style="edgeStyle=orthogonalEdgeStyle;rounded=0;orthogonalLoop=1;jettySize=auto;html=1;" edge="1" parent="1" source="GhoDLd_KPCmhALnuABOB-32" target="GhoDLd_KPCmhALnuABOB-35">
          <mxGeometry relative="1" as="geometry" />
        </mxCell>
        <mxCell id="GhoDLd_KPCmhALnuABOB-47" value="inclusão" style="edgeLabel;html=1;align=center;verticalAlign=middle;resizable=0;points=[];" vertex="1" connectable="0" parent="GhoDLd_KPCmhALnuABOB-38">
          <mxGeometry x="0.4286" y="1" relative="1" as="geometry">
            <mxPoint as="offset" />
          </mxGeometry>
        </mxCell>
        <mxCell id="GhoDLd_KPCmhALnuABOB-40" value="" style="edgeStyle=orthogonalEdgeStyle;rounded=0;orthogonalLoop=1;jettySize=auto;html=1;" edge="1" parent="1" source="GhoDLd_KPCmhALnuABOB-32" target="GhoDLd_KPCmhALnuABOB-39">
          <mxGeometry relative="1" as="geometry" />
        </mxCell>
        <mxCell id="GhoDLd_KPCmhALnuABOB-50" value="inclusão" style="edgeLabel;html=1;align=center;verticalAlign=middle;resizable=0;points=[];" vertex="1" connectable="0" parent="GhoDLd_KPCmhALnuABOB-40">
          <mxGeometry x="-0.6" y="-1" relative="1" as="geometry">
            <mxPoint as="offset" />
          </mxGeometry>
        </mxCell>
        <mxCell id="GhoDLd_KPCmhALnuABOB-46" value="" style="edgeStyle=orthogonalEdgeStyle;rounded=0;orthogonalLoop=1;jettySize=auto;html=1;" edge="1" parent="1" source="GhoDLd_KPCmhALnuABOB-32" target="GhoDLd_KPCmhALnuABOB-34">
          <mxGeometry relative="1" as="geometry" />
        </mxCell>
        <mxCell id="GhoDLd_KPCmhALnuABOB-48" value="inclusão" style="edgeLabel;html=1;align=center;verticalAlign=middle;resizable=0;points=[];" vertex="1" connectable="0" parent="GhoDLd_KPCmhALnuABOB-46">
          <mxGeometry x="0.3907" y="-1" relative="1" as="geometry">
            <mxPoint as="offset" />
          </mxGeometry>
        </mxCell>
        <mxCell id="GhoDLd_KPCmhALnuABOB-32" value="Efetuar o pagamento" style="ellipse;whiteSpace=wrap;html=1;fillColor=#d80073;fontColor=#ffffff;strokeColor=#A50040;" vertex="1" parent="1">
          <mxGeometry x="330" y="310" width="140" height="70" as="geometry" />
        </mxCell>
        <mxCell id="GhoDLd_KPCmhALnuABOB-34" value="A vista" style="ellipse;whiteSpace=wrap;html=1;fillColor=#d80073;fontColor=#ffffff;strokeColor=#A50040;" vertex="1" parent="1">
          <mxGeometry x="620" y="290" width="140" height="70" as="geometry" />
        </mxCell>
        <mxCell id="GhoDLd_KPCmhALnuABOB-35" value="A prazo" style="ellipse;whiteSpace=wrap;html=1;fillColor=#d80073;fontColor=#ffffff;strokeColor=#A50040;" vertex="1" parent="1">
          <mxGeometry x="480" y="435" width="140" height="70" as="geometry" />
        </mxCell>
        <mxCell id="GhoDLd_KPCmhALnuABOB-43" value="" style="edgeStyle=orthogonalEdgeStyle;rounded=0;orthogonalLoop=1;jettySize=auto;html=1;" edge="1" parent="1" source="GhoDLd_KPCmhALnuABOB-39" target="GhoDLd_KPCmhALnuABOB-42">
          <mxGeometry relative="1" as="geometry" />
        </mxCell>
        <mxCell id="GhoDLd_KPCmhALnuABOB-49" value="inclusão" style="edgeLabel;html=1;align=center;verticalAlign=middle;resizable=0;points=[];" vertex="1" connectable="0" parent="GhoDLd_KPCmhALnuABOB-43">
          <mxGeometry x="-0.1059" y="-3" relative="1" as="geometry">
            <mxPoint as="offset" />
          </mxGeometry>
        </mxCell>
        <mxCell id="GhoDLd_KPCmhALnuABOB-39" value="Compra finalizada" style="ellipse;whiteSpace=wrap;html=1;fillColor=#d80073;fontColor=#ffffff;strokeColor=#A50040;" vertex="1" parent="1">
          <mxGeometry x="320" y="435" width="140" height="70" as="geometry" />
        </mxCell>
        <mxCell id="GhoDLd_KPCmhALnuABOB-42" value="&amp;nbsp;Emissão do comprovante" style="ellipse;whiteSpace=wrap;html=1;fillColor=#d80073;fontColor=#ffffff;strokeColor=#A50040;" vertex="1" parent="1">
          <mxGeometry x="320" y="570" width="140" height="70" as="geometry" />
        </mxCell>
      </root>
    </mxGraphModel>
  </diagram>
  <diagram id="K3KTKC1KfkLGZUrdqvG4" name="Casos de uso Grupo">
    <mxGraphModel dx="903" dy="506" grid="1" gridSize="10" guides="1" tooltips="1" connect="1" arrows="1" fold="1" page="1" pageScale="1" pageWidth="827" pageHeight="1169" math="0" shadow="0">
      <root>
        <mxCell id="0" />
        <mxCell id="1" parent="0" />
        <mxCell id="_Mfiff44Y0kJ5mUy_5eu-3" value="" style="edgeStyle=orthogonalEdgeStyle;rounded=0;orthogonalLoop=1;jettySize=auto;html=1;" edge="1" parent="1" source="_Mfiff44Y0kJ5mUy_5eu-1" target="_Mfiff44Y0kJ5mUy_5eu-2">
          <mxGeometry relative="1" as="geometry" />
        </mxCell>
        <mxCell id="_Mfiff44Y0kJ5mUy_5eu-1" value="Actor" style="shape=umlActor;verticalLabelPosition=bottom;verticalAlign=top;html=1;" vertex="1" parent="1">
          <mxGeometry x="100" y="110" width="30" height="60" as="geometry" />
        </mxCell>
        <mxCell id="_Mfiff44Y0kJ5mUy_5eu-5" value="" style="edgeStyle=orthogonalEdgeStyle;rounded=0;orthogonalLoop=1;jettySize=auto;html=1;" edge="1" parent="1" source="_Mfiff44Y0kJ5mUy_5eu-2" target="_Mfiff44Y0kJ5mUy_5eu-4">
          <mxGeometry relative="1" as="geometry" />
        </mxCell>
        <mxCell id="_Mfiff44Y0kJ5mUy_5eu-8" value="extend" style="edgeLabel;html=1;align=center;verticalAlign=middle;resizable=0;points=[];" vertex="1" connectable="0" parent="_Mfiff44Y0kJ5mUy_5eu-5">
          <mxGeometry x="0.1174" y="3" relative="1" as="geometry">
            <mxPoint as="offset" />
          </mxGeometry>
        </mxCell>
        <mxCell id="_Mfiff44Y0kJ5mUy_5eu-7" value="" style="edgeStyle=orthogonalEdgeStyle;rounded=0;orthogonalLoop=1;jettySize=auto;html=1;" edge="1" parent="1" source="_Mfiff44Y0kJ5mUy_5eu-2" target="_Mfiff44Y0kJ5mUy_5eu-6">
          <mxGeometry relative="1" as="geometry">
            <Array as="points">
              <mxPoint x="380" y="140" />
              <mxPoint x="380" y="195" />
              <mxPoint x="324" y="195" />
              <mxPoint x="324" y="210" />
            </Array>
          </mxGeometry>
        </mxCell>
        <mxCell id="_Mfiff44Y0kJ5mUy_5eu-9" value="extend" style="edgeLabel;html=1;align=center;verticalAlign=middle;resizable=0;points=[];" vertex="1" connectable="0" parent="_Mfiff44Y0kJ5mUy_5eu-7">
          <mxGeometry x="0.4472" y="1" relative="1" as="geometry">
            <mxPoint as="offset" />
          </mxGeometry>
        </mxCell>
        <mxCell id="_Mfiff44Y0kJ5mUy_5eu-16" value="include" style="edgeLabel;html=1;align=center;verticalAlign=middle;resizable=0;points=[];" vertex="1" connectable="0" parent="_Mfiff44Y0kJ5mUy_5eu-7">
          <mxGeometry x="-0.8081" y="-1" relative="1" as="geometry">
            <mxPoint as="offset" />
          </mxGeometry>
        </mxCell>
        <mxCell id="_Mfiff44Y0kJ5mUy_5eu-11" value="" style="edgeStyle=orthogonalEdgeStyle;rounded=0;orthogonalLoop=1;jettySize=auto;html=1;" edge="1" parent="1" source="_Mfiff44Y0kJ5mUy_5eu-2" target="_Mfiff44Y0kJ5mUy_5eu-10">
          <mxGeometry relative="1" as="geometry" />
        </mxCell>
        <mxCell id="_Mfiff44Y0kJ5mUy_5eu-12" value="include" style="edgeLabel;html=1;align=center;verticalAlign=middle;resizable=0;points=[];" vertex="1" connectable="0" parent="_Mfiff44Y0kJ5mUy_5eu-11">
          <mxGeometry x="-0.4545" y="2" relative="1" as="geometry">
            <mxPoint as="offset" />
          </mxGeometry>
        </mxCell>
        <mxCell id="_Mfiff44Y0kJ5mUy_5eu-2" value="Registrar tarefas" style="ellipse;whiteSpace=wrap;html=1;" vertex="1" parent="1">
          <mxGeometry x="190" y="105" width="140" height="70" as="geometry" />
        </mxCell>
        <mxCell id="_Mfiff44Y0kJ5mUy_5eu-4" value="Atribuir prioridades" style="ellipse;whiteSpace=wrap;html=1;" vertex="1" parent="1">
          <mxGeometry x="190" y="230" width="140" height="70" as="geometry" />
        </mxCell>
        <mxCell id="_Mfiff44Y0kJ5mUy_5eu-6" value="Definir prazos" style="ellipse;whiteSpace=wrap;html=1;" vertex="1" parent="1">
          <mxGeometry x="380" y="190" width="140" height="70" as="geometry" />
        </mxCell>
        <mxCell id="_Mfiff44Y0kJ5mUy_5eu-10" value="Acomp. tarefa" style="ellipse;whiteSpace=wrap;html=1;" vertex="1" parent="1">
          <mxGeometry x="190" width="140" height="70" as="geometry" />
        </mxCell>
        <mxCell id="_Mfiff44Y0kJ5mUy_5eu-13" value="Visualizar relatorios desemp." style="ellipse;whiteSpace=wrap;html=1;" vertex="1" parent="1">
          <mxGeometry x="380" y="100" width="140" height="70" as="geometry" />
        </mxCell>
      </root>
    </mxGraphModel>
  </diagram>
</mxfile>
